<?xml version="1.0" encoding="iso-8859-1"?>
<!-- Generator: Adobe Illustrator 19.0.0, SVG Export Plug-In . SVG Version: 6.00 Build 0)  -->
<svg version="1.1" id="Capa_1" xmlns="http://www.w3.org/2000/svg" xmlns:xlink="http://www.w3.org/1999/xlink" x="0px" y="0px"
	 viewBox="0 0 512 512" style="enable-background:new 0 0 512 512;" xml:space="preserve">
<path style="fill:#F0E4D6;" d="M499.41,344.131c-40.683,0.017-74.039,32.273-75.407,72.939
	c-27.606-13.278-60.785-3.038-76.087,23.502c-14.856-21.731-43.931-28.361-66.736-15.209v-39.961H230.82v39.961
	c-22.797-13.153-51.88-6.53-66.736,15.192c-15.301-26.54-48.481-36.78-76.087-23.502c-1.377-40.658-34.724-72.905-75.407-72.922
	H4.197V512h503.607V344.131H499.41z"/>
<path style="fill:#E8594A;" d="M297.967,318.951h-83.934l-31.35-97.54C156.361,139.516,185.999,50,256,0l0,0
	c70.001,50,99.639,139.516,73.317,221.411L297.967,318.951z"/>
<path style="fill:#D65245;" d="M204.036,287.895l9.997,31.056h83.934l31.35-97.54c10.744-33.481,12.338-69.221,4.625-103.525
	C298.437,222.661,242.109,268.305,204.036,287.895z"/>
<circle style="fill:#87CED9;" cx="256" cy="159.475" r="41.967"/>
<polygon style="fill:#4398D1;" points="230.82,318.951 222.426,360.918 289.574,360.918 281.18,318.951 "/>
<g>
	<path style="fill:#FDB62F;" d="M172.066,377.705l6.337-44.343c1.183-8.268,8.268-14.412,16.619-14.412h19.011L184.53,227.16
		c-44.494,31.82-54.759,93.688-22.939,138.173C164.738,369.74,168.238,373.877,172.066,377.705z"/>
	<path style="fill:#FDB62F;" d="M339.934,377.705l-6.337-44.343c-1.183-8.268-8.268-14.412-16.619-14.412h-19.011l29.503-91.791
		c44.494,31.82,54.759,93.688,22.939,138.173C347.262,369.74,343.762,373.877,339.934,377.705z"/>
</g>
<g>
	<path style="fill:#E0D2C1;" d="M222.426,412.764c-20.379-6.22-42.538-0.806-57.747,14.118
		c-12.758-15.167-31.551-23.946-51.368-23.997c-6.11,0-12.196,0.848-18.071,2.518c-6.774-40.322-41.757-69.808-82.65-69.666H4.197
		v16.787h8.393c34.312-0.109,63.119,25.81,66.619,59.946c-8.158,4.751-15.226,11.163-20.74,18.826
		c-15.125-12.926-34.371-20.027-54.272-20.018v16.787c37.065,0.042,67.106,30.082,67.148,67.148h16.787
		c0.008-18.591-6.194-36.654-17.626-51.317c4.986-8.259,12.221-14.915,20.866-19.187c0.084,0,0.176,0,0.26-0.084
		c6.765-3.265,14.177-4.961,21.68-4.952c16.266,0.076,31.501,7.991,40.918,21.252c-4.767,8.964-7.294,18.952-7.344,29.108h16.787
		c-0.008-8.578,2.417-16.988,6.992-24.249h-0.05c0.118-0.159,0.277-0.277,0.395-0.445c11.34-16.669,32.961-22.872,51.418-14.756
		v21.991h16.787v-67.148h-16.787V412.764z"/>
	<path style="fill:#E0D2C1;" d="M499.41,352.525h8.393v-16.787h-8.393c-40.893-0.143-75.877,29.343-82.65,69.666
		c-5.875-1.67-11.961-2.518-18.071-2.518c-19.817,0.05-38.61,8.83-51.368,23.997c-15.209-14.924-37.368-20.337-57.747-14.118
		v-27.363h-16.787v67.148h16.787v-21.966c18.457-8.116,40.07-1.922,51.418,14.747c0.118,0.168,0.277,0.285,0.395,0.445h-0.05
		c4.574,7.26,7,15.671,6.992,24.257h16.787c-0.05-10.156-2.577-20.144-7.344-29.108c9.417-13.262,24.652-21.177,40.918-21.252
		c7.512,0,14.924,1.695,21.68,4.969c0.084,0.042,0.176,0.05,0.26,0.084c8.654,4.264,15.914,10.911,20.908,19.171
		c-11.449,14.655-17.668,32.718-17.668,51.318h16.787c0.042-37.065,30.082-67.106,67.148-67.148v-16.787
		c-19.901,0-39.147,7.092-54.272,20.018c-5.514-7.663-12.582-14.076-20.74-18.826C436.291,378.334,465.097,352.415,499.41,352.525z"
		/>
</g>
<g>
	<rect x="214.033" y="235.016" style="fill:#C44639;" width="16.787" height="16.787"/>
	<rect x="247.607" y="235.016" style="fill:#C44639;" width="16.787" height="16.787"/>
	<rect x="281.18" y="235.016" style="fill:#C44639;" width="16.787" height="16.787"/>
</g>
<rect x="96.525" y="436.459" style="fill:#FFF7ED;" width="16.787" height="16.787"/>
<rect x="4.197" y="302.164" style="fill:#F0E4D6;" width="16.787" height="16.787"/>
<rect x="474.229" y="377.705" style="fill:#FFF7ED;" width="16.787" height="16.787"/>
<rect x="407.082" y="344.131" style="fill:#F0E4D6;" width="16.787" height="16.787"/>
<rect x="314.754" y="478.426" style="fill:#FFF7ED;" width="16.787" height="16.787"/>
<rect x="491.016" y="285.377" style="fill:#F0E4D6;" width="16.787" height="16.787"/>
<path style="fill:#C44639;" d="M315.048,67.148H196.952c-2.954,5.489-5.724,11.063-8.142,16.787H323.19
	C320.772,78.21,318.002,72.637,315.048,67.148z"/>
<path style="fill:#7DC6D1;" d="M221.117,182.784c12.724,19.33,38.711,24.685,58.032,11.961
	c19.33-12.724,24.685-38.711,11.961-58.032c-0.478-0.722-0.974-1.435-1.502-2.132L221.117,182.784z"/>
<g>
</g>
<g>
</g>
<g>
</g>
<g>
</g>
<g>
</g>
<g>
</g>
<g>
</g>
<g>
</g>
<g>
</g>
<g>
</g>
<g>
</g>
<g>
</g>
<g>
</g>
<g>
</g>
<g>
</g>
</svg>
